# Made in Blockbench 5.1.4
mtllib materials.mtl

o board_surface
v 0.375 1.875 0.5
v 0.375 1.875 0.484375
v 0.375 0.125 0.5
v 0.375 0.125 0.484375
v -3.375 1.875 0.484375
v -3.375 1.875 0.5
v -3.375 0.125 0.484375
v -3.375 0.125 0.5
vt 0 1
vt 1 1
vt 1 0
vt 0 0
vt 0 0.984375
vt 0.001953125 0.984375
vt 0.001953125 0.765625
vt 0 0.765625
vt 0.08984375 0.71875
vt 0.08203125 0.71875
vt 0.08203125 0.5625
vt 0.08984375 0.5625
vt 0.013671875 0.984375
vt 0.015625 0.984375
vt 0.015625 0.765625
vt 0.013671875 0.765625
vt 0.015625 0.986328125
vt 0.484375 0.986328125
vt 0.484375 0.984375
vt 0.015625 0.984375
vt 0.015625 1
vt 0.484375 1
vt 0.484375 0.998046875
vt 0.015625 0.998046875
vn 0 0 -1
vn 1 0 0
vn 0 0 1
vn -1 0 0
vn 0 1 0
vn 0 -1 0
usemtl m_5c48cb13-0f0e-003a-9ccd-6a79b00b59aa
f 4/4/1 7/3/1 5/2/1 2/1/1
usemtl none
f 3/8/2 4/7/2 2/6/2 1/5/2
usemtl m_478ab2b4-07fb-e97a-fd42-e898bafaaf8b
f 8/12/3 3/11/3 1/10/3 6/9/3
usemtl none
f 7/16/4 8/15/4 6/14/4 5/13/4
f 6/20/5 1/19/5 2/18/5 5/17/5
f 7/24/6 4/23/6 3/22/6 8/21/6
o frame_left
v 0.5 1.875 0.5
v 0.5 1.875 0.46875
v 0.5 0.125 0.5
v 0.5 0.125 0.46875
v 0.375 1.875 0.46875
v 0.375 1.875 0.5
v 0.375 0.125 0.46875
v 0.375 0.125 0.5
vt 0.03125 1
vt 0.03125 0
vt 0.96875 0
vt 0.96875 1
vt 0.03515625 0.25
vt 0.03515625 0.59375
vt 0.90625 0.59375
vt 0.90625 0.25
vt 0.03515625 0.21875
vt 0.03515625 0.8125
vt 0.91796875 0.8125
vt 0.91796875 0.21875
vt 0.03125 0
vt 0.03125 0.125
vt 0.96875 0.125
vt 0.96875 0
vt 0.484375 0.984375
vt 0.5 0.984375
vt 0.5 0.9765625
vt 0.484375 0.9765625
vt 0.484375 1
vt 0.5 1
vt 0.5 0.9921875
vt 0.484375 0.9921875
vn 0 0 -1
vn 1 0 0
vn 0 0 1
vn -1 0 0
vn 0 1 0
vn 0 -1 0
usemtl m_478ab2b4-07fb-e97a-fd42-e898bafaaf8b
f 12/28/7 15/27/7 13/26/7 10/25/7
f 11/32/8 12/31/8 10/30/8 9/29/8
f 16/36/9 11/35/9 9/34/9 14/33/9
f 15/40/10 16/39/10 14/38/10 13/37/10
usemtl none
f 14/44/11 9/43/11 10/42/11 13/41/11
f 15/48/12 12/47/12 11/46/12 16/45/12
o frame_top
v 0.5 2 0.5
v 0.5 2 0.46875
v 0.5 1.875 0.5
v 0.5 1.875 0.46875
v -3.5 2 0.46875
v -3.5 2 0.5
v -3.5 1.875 0.46875
v -3.5 1.875 0.5
vt 0 1
vt 1 1
vt 1 0
vt 0 0
vt 0.0390625 0.875
vt 0.05078125 0.875
vt 0.05078125 0.15625
vt 0.0390625 0.15625
vt 0.03515625 0.6875
vt 0.69140625 0.6875
vt 0.69140625 0.34375
vt 0.03515625 0.34375
vt 0.0390625 0.875
vt 0.05078125 0.875
vt 0.05078125 0.15625
vt 0.0390625 0.15625
vt 0.04296875 0.75
vt 0.9609375 0.75
vt 0.9609375 0.5
vt 0.04296875 0.5
vt 0 0
vt 1 0
vt 1 0.15625
vt 0 0.15625
vn 0 0 -1
vn 1 0 0
vn 0 0 1
vn -1 0 0
vn 0 1 0
vn 0 -1 0
usemtl m_478ab2b4-07fb-e97a-fd42-e898bafaaf8b
f 20/52/13 23/51/13 21/50/13 18/49/13
f 19/56/14 20/55/14 18/54/14 17/53/14
f 24/60/15 19/59/15 17/58/15 22/57/15
f 23/64/16 24/63/16 22/62/16 21/61/16
f 22/68/17 17/67/17 18/66/17 21/65/17
f 23/72/18 20/71/18 19/70/18 24/69/18
o bottom_accessory
v 0.5 0.109375 0.46875
v 0.5 0.109375 0.34375
v 0.5 0 0.46875
v 0.5 0 0.34375
v -3.5 0.109375 0.34375
v -3.5 0.109375 0.46875
v -3.5 0 0.34375
v -3.5 0 0.46875
vt 0.03125 1
vt 0.96875 1
vt 0.96875 0
vt 0.03125 0
vt 0.06640625 0.84375
vt 0.08984375 0.84375
vt 0.08984375 0.15625
vt 0.06640625 0.15625
vt 0 0.763671875
vt 0.5 0.763671875
vt 0.5 0.75
vt 0 0.75
vt 0.06640625 0.8125
vt 0.08984375 0.8125
vt 0.08984375 0.25
vt 0.06640625 0.25
vt 0 0.96875
vt 1 0.96875
vt 1 0
vt 0 0
vt 0.0390625 0.875
vt 0.96484375 0.875
vt 0.96484375 0.09375
vt 0.0390625 0.09375
vn 0 0 -1
vn 1 0 0
vn 0 0 1
vn -1 0 0
vn 0 1 0
vn 0 -1 0
usemtl m_478ab2b4-07fb-e97a-fd42-e898bafaaf8b
f 28/76/19 31/75/19 29/74/19 26/73/19
f 27/80/20 28/79/20 26/78/20 25/77/20
usemtl none
f 32/84/21 27/83/21 25/82/21 30/81/21
usemtl m_478ab2b4-07fb-e97a-fd42-e898bafaaf8b
f 31/88/22 32/87/22 30/86/22 29/85/22
f 30/92/23 25/91/23 26/90/23 29/89/23
f 31/96/24 28/95/24 27/94/24 32/93/24
o frame_right
v -3.375 1.875 0.5
v -3.375 1.875 0.46875
v -3.375 0.125 0.5
v -3.375 0.125 0.46875
v -3.5 1.875 0.46875
v -3.5 1.875 0.5
v -3.5 0.125 0.46875
v -3.5 0.125 0.5
vt 0.03125 0
vt 0.03125 1
vt 0.96875 1
vt 0.96875 0
vt 0.03515625 0.15625
vt 0.03515625 0
vt 0.96875 0
vt 0.96875 0.15625
vt 0.03125 0.21875
vt 0.03125 0.84375
vt 0.31640625 0.84375
vt 0.31640625 0.21875
vt 0.015625 0.375
vt 0.015625 0.75
vt 0.95703125 0.75
vt 0.95703125 0.375
vt 0.484375 0.984375
vt 0.5 0.984375
vt 0.5 0.9765625
vt 0.484375 0.9765625
vt 0.484375 1
vt 0.5 1
vt 0.5 0.9921875
vt 0.484375 0.9921875
vn 0 0 -1
vn 1 0 0
vn 0 0 1
vn -1 0 0
vn 0 1 0
vn 0 -1 0
usemtl m_478ab2b4-07fb-e97a-fd42-e898bafaaf8b
f 36/100/25 39/99/25 37/98/25 34/97/25
f 35/104/26 36/103/26 34/102/26 33/101/26
f 40/108/27 35/107/27 33/106/27 38/105/27
f 39/112/28 40/111/28 38/110/28 37/109/28
usemtl none
f 38/116/29 33/115/29 34/114/29 37/113/29
f 39/120/30 36/119/30 35/118/30 40/117/30
o frame_bottom
v 0.5 0.125 0.5
v 0.5 0.125 0.46875
v 0.5 0 0.5
v 0.5 0 0.46875
v -3.5 0.125 0.46875
v -3.5 0.125 0.5
v -3.5 0 0.46875
v -3.5 0 0.5
vt 0 0
vt 1 0
vt 1 1
vt 0 1
vt 0.0390625 0.875
vt 0.05078125 0.875
vt 0.05078125 0.15625
vt 0.0390625 0.15625
vt 0.046875 0.84375
vt 0.94921875 0.84375
vt 0.94921875 0.375
vt 0.046875 0.375
vt 0.03125 0.15625
vt 0.0390625 0.15625
vt 0.0390625 0.84375
vt 0.03125 0.84375
vt 0 0.09375
vt 1 0.09375
vt 1 0
vt 0 0
vt 0.046875 0.78125
vt 0.96484375 0.78125
vt 0.96484375 0.5
vt 0.046875 0.5
vn 0 0 -1
vn 1 0 0
vn 0 0 1
vn -1 0 0
vn 0 1 0
vn 0 -1 0
usemtl m_478ab2b4-07fb-e97a-fd42-e898bafaaf8b
f 44/124/31 47/123/31 45/122/31 42/121/31
f 43/128/32 44/127/32 42/126/32 41/125/32
f 48/132/33 43/131/33 41/130/33 46/129/33
f 47/136/34 48/135/34 46/134/34 45/133/34
f 46/140/35 41/139/35 42/138/35 45/137/35
f 47/144/36 44/143/36 43/142/36 48/141/36