# Made in Blockbench 5.1.4
mtllib materials.mtl

o cube
v -0.20949249999999991 -5.551115123125783e-17 0.06696437500000005
v 0.22800750000000009 5.551115123125783e-17 0.06696437499999995
v -0.20949249999999994 -5.551115123125783e-17 0.03571437500000005
v 0.22800750000000006 5.551115123125783e-17 0.03571437499999995
v 0.22800749999999995 0.5625 0.06696437499999995
v -0.20949250000000005 0.5625 0.06696437500000005
v 0.22800749999999995 0.5625 0.03571437499999995
v -0.20949250000000005 0.5625 0.03571437500000005
vt 0.14285714285714285 0.05555555555555558
vt 0.7857142857142857 0.05555555555555558
vt 0.7857142857142857 0.02777777777777779
vt 0.14285714285714285 0.02777777777777779
vt 0.14285714285714285 0.05555555555555558
vt 0.6428571428571429 0.05555555555555558
vt 0.6428571428571429 0.02777777777777779
vt 0.14285714285714285 0.02777777777777779
vt 0.9285714285714286 1
vt 0.9285714285714286 0
vt 1 0
vt 1 1
vt 0 1
vt 1 1
vt 1 0.9444444444444444
vt 0 0.9444444444444444
vt 0 1
vt 0 0
vt 1 0
vt 1 1
vt 0.07142857142857142 0.16666666666666663
vt 0.21428571428571427 0.16666666666666663
vt 0.21428571428571427 0.05555555555555558
vt 0.07142857142857142 0.05555555555555558
vn 1 2.220446049250313e-16 -2.220446049250313e-16
vn 2.220446049250313e-16 -1 -4.930380657631324e-32
vn -1 -2.220446049250313e-16 2.220446049250313e-16
vn -2.220446049250313e-16 1 4.930380657631324e-32
vn 2.220446049250313e-16 4.930380657631324e-32 1
vn -2.220446049250313e-16 -4.930380657631324e-32 -1
usemtl m_c6aa6d61-07be-a93b-d490-0d3a1127132c
f 4/4/1 7/3/1 5/2/1 2/1/1
f 3/8/2 4/7/2 2/6/2 1/5/2
f 8/12/3 3/11/3 1/10/3 6/9/3
f 7/16/4 8/15/4 6/14/4 5/13/4
f 6/20/5 1/19/5 2/18/5 5/17/5
f 7/24/6 4/23/6 3/22/6 8/21/6
o cube
v -0.20949249999999994 0.015624999999999944 0.03571437500000005
v 0.19675750000000006 0.015625000000000056 0.03571437499999996
v -0.20949249999999994 0.015624999999999944 -0.026785624999999952
v 0.19675750000000006 0.015625000000000056 -0.026785625000000042
v 0.19675749999999995 0.546875 0.03571437499999996
v -0.20949250000000005 0.546875 0.03571437500000005
v 0.19675749999999995 0.546875 -0.026785625000000042
v -0.20949250000000005 0.546875 -0.026785624999999952
vt 0 1
vt 0.5 1
vt 0.5 0.75
vt 0 0.75
vt 0 1
vt 0.5 1
vt 0.5 0.75
vt 0 0.75
vt 0.6607142857142857 1
vt 0.05357142857142857 1
vt 0.05357142857142857 0.9444444444444444
vt 0.6607142857142857 0.9444444444444444
vt 0 1
vt 0.5 1
vt 0.5 0.75
vt 0 0.75
vt 0.015625 0.96875
vt 0.546875 0.96875
vt 0.546875 0.5625
vt 0.015625 0.5625
vt 0.015625 0.984375
vt 0.546875 0.984375
vt 0.546875 0.578125
vt 0.015625 0.578125
vn 1 2.220446049250313e-16 -2.220446049250313e-16
vn 2.220446049250313e-16 -1 -4.930380657631324e-32
vn -1 -2.220446049250313e-16 2.220446049250313e-16
vn -2.220446049250313e-16 1 4.930380657631324e-32
vn 2.220446049250313e-16 4.930380657631324e-32 1
vn -2.220446049250313e-16 -4.930380657631324e-32 -1
usemtl m_721c0dd7-f8e7-3cc9-f1aa-7fe0c10da538
f 12/28/7 15/27/7 13/26/7 10/25/7
f 11/32/8 12/31/8 10/30/8 9/29/8
usemtl m_c6aa6d61-07be-a93b-d490-0d3a1127132c
f 16/36/9 11/35/9 9/34/9 14/33/9
usemtl m_721c0dd7-f8e7-3cc9-f1aa-7fe0c10da538
f 15/40/10 16/39/10 14/38/10 13/37/10
usemtl none
f 14/44/11 9/43/11 10/42/11 13/41/11
f 15/48/12 12/47/12 11/46/12 16/45/12
o cube
v -0.20949249999999994 -5.551115123125783e-17 -0.026785624999999952
v 0.22800750000000006 5.551115123125783e-17 -0.02678562500000005
v -0.20949249999999994 -5.551115123125783e-17 -0.05803562499999995
v 0.22800750000000006 5.551115123125783e-17 -0.058035625000000056
v 0.22800749999999995 0.5625 -0.02678562500000005
v -0.20949250000000005 0.5625 -0.026785624999999952
v 0.22800749999999992 0.5625 -0.058035625000000056
v -0.20949250000000008 0.5625 -0.05803562499999995
vt 0.14285714285714285 0.05555555555555558
vt 0.7857142857142857 0.05555555555555558
vt 0.7857142857142857 0.02777777777777779
vt 0.14285714285714285 0.02777777777777779
vt 0.14285714285714285 0.05555555555555558
vt 0.6428571428571429 0.05555555555555558
vt 0.6428571428571429 0.02777777777777779
vt 0.14285714285714285 0.02777777777777779
vt 0.9285714285714286 1
vt 0.9285714285714286 0
vt 1 0
vt 1 1
vt 0 1
vt 1 1
vt 1 0.9444444444444444
vt 0 0.9444444444444444
vt 0 1
vt 0 0
vt 1 0
vt 1 1
vt 0 0.05555555555555558
vt 0.07142857142857142 0.05555555555555558
vt 0.07142857142857142 0
vt 0 0
vn 1 2.220446049250313e-16 -2.220446049250313e-16
vn 2.220446049250313e-16 -1 -4.930380657631324e-32
vn -1 -2.220446049250313e-16 2.220446049250313e-16
vn -2.220446049250313e-16 1 4.930380657631324e-32
vn 2.220446049250313e-16 4.930380657631324e-32 1
vn -2.220446049250313e-16 -4.930380657631324e-32 -1
usemtl m_c6aa6d61-07be-a93b-d490-0d3a1127132c
f 20/52/13 23/51/13 21/50/13 18/49/13
f 19/56/14 20/55/14 18/54/14 17/53/14
f 24/60/15 19/59/15 17/58/15 22/57/15
f 23/64/16 24/63/16 22/62/16 21/61/16
f 22/68/17 17/67/17 18/66/17 21/65/17
f 23/72/18 20/71/18 19/70/18 24/69/18